<svg width="48" height="48" viewBox="0 0 48 48" fill="none" xmlns="http://www.w3.org/2000/svg">
<path d="M24 6.79999C35.8 6.79999 45.8 21 45.8 29.8C45.8 31 45.6 32.2 45.2 33C43.6 30.2 39.8 24.2 33.2 18.2C32 17.2 31 16.4 30 16.6C28.6 16.8 27.6 18.2 25.4 21.6C24.8 22.6 24 23.6 23.2 25C22.6 26 20.6 28.8 19.8 29.4C19.6 29 19.2 28 19 27.4C18.6 26.4 18.2 25 17.4 23.6C16.6 22 15.6 21.6 14.8 21.6C11 21.6 5.60004 30.2 3.40004 34C2.80004 32.8 2.40004 31.4 2.40004 29.8C2.20004 21 12.2 6.79999 24 6.79999ZM24 41.2C16.6 41.2 8.40004 40.2 4.40004 35.8C7.40004 30.4 12.2 23.4 14.6 23.4C14.8 23.4 15 23.4 15.6 24.2C16.2 25.6 16.8 26.8 17.2 27.8C18 29.8 18.4 31 19.6 31.2C21 31.4 22.2 30 24.8 26C25.6 24.8 26.4 23.6 27 22.6C28.4 20.4 29.6 18.6 30.2 18.4C30.6 18.4 31.6 19.2 31.8 19.6C39.2 26.2 43 33.2 44 35C40.4 40 31.6 41.2 24 41.2Z" fill="#063091"/>
</svg>
